<svg xmlns="http://www.w3.org/2000/svg" xmlns:xlink="http://www.w3.org/1999/xlink" width="200" zoomAndPan="magnify" viewBox="0 0 150 37.5" height="50" preserveAspectRatio="xMidYMid meet" version="1.0"><defs><g/><clipPath id="id1"><path d="M 1.402344 33.121094 L 8.0625 33.121094 L 8.0625 36.820312 L 1.402344 36.820312 Z M 1.402344 33.121094 " clip-rule="nonzero"/></clipPath><clipPath id="id2"><path d="M 22.375 33.117188 L 27.554688 33.117188 L 27.554688 36.816406 L 22.375 36.816406 Z M 22.375 33.117188 " clip-rule="nonzero"/></clipPath><clipPath id="id3"><path d="M 11.898438 32.902344 L 18.558594 32.902344 L 18.558594 36.601562 L 11.898438 36.601562 Z M 11.898438 32.902344 " clip-rule="nonzero"/></clipPath><clipPath id="id4"><path d="M 0.988281 1.257812 L 4.6875 1.257812 L 4.6875 35.300781 L 0.988281 35.300781 Z M 0.988281 1.257812 " clip-rule="nonzero"/></clipPath><clipPath id="id5"><path d="M 1.402344 0.214844 L 13.246094 0.214844 L 13.246094 3.917969 L 1.402344 3.917969 Z M 1.402344 0.214844 " clip-rule="nonzero"/></clipPath><clipPath id="id6"><path d="M 0.988281 5.003906 L 13.570312 5.003906 L 13.570312 8.703125 L 0.988281 8.703125 Z M 0.988281 5.003906 " clip-rule="nonzero"/></clipPath><clipPath id="id7"><path d="M 15.4375 1.863281 L 19.878906 1.863281 L 19.878906 6.304688 L 15.4375 6.304688 Z M 15.4375 1.863281 " clip-rule="nonzero"/></clipPath><clipPath id="id8"><path d="M 25.328125 6.386719 L 29.027344 6.386719 L 29.027344 35.992188 L 25.328125 35.992188 Z M 25.328125 6.386719 " clip-rule="nonzero"/></clipPath><clipPath id="id9"><path d="M 20.40625 18.410156 L 24.109375 18.410156 L 24.109375 31.734375 L 20.40625 31.734375 Z M 20.40625 18.410156 " clip-rule="nonzero"/></clipPath><clipPath id="id10"><path d="M 15.492188 18.410156 L 19.191406 18.410156 L 19.191406 33.953125 L 15.492188 33.953125 Z M 15.492188 18.410156 " clip-rule="nonzero"/></clipPath><clipPath id="id11"><path d="M 10.609375 18.410156 L 14.3125 18.410156 L 14.3125 33.953125 L 10.609375 33.953125 Z M 10.609375 18.410156 " clip-rule="nonzero"/></clipPath><clipPath id="id12"><path d="M 5.78125 18.410156 L 9.480469 18.410156 L 9.480469 30.253906 L 5.78125 30.253906 Z M 5.78125 18.410156 " clip-rule="nonzero"/></clipPath><clipPath id="id13"><path d="M 5.738281 17 L 14.617188 17 L 14.617188 24.402344 L 5.738281 24.402344 Z M 5.738281 17 " clip-rule="nonzero"/></clipPath><clipPath id="id14"><path d="M 15.492188 17 L 24.371094 17 L 24.371094 24.402344 L 15.492188 24.402344 Z M 15.492188 17 " clip-rule="nonzero"/></clipPath><clipPath id="id15"><path d="M 5.746094 9.84375 L 14.628906 9.84375 L 14.628906 16.503906 L 5.746094 16.503906 Z M 5.746094 9.84375 " clip-rule="nonzero"/></clipPath><clipPath id="id16"><path d="M 15.402344 9.84375 L 24.285156 9.84375 L 24.285156 16.503906 L 15.402344 16.503906 Z M 15.402344 9.84375 " clip-rule="nonzero"/></clipPath><clipPath id="id17"><path d="M 3.894531 4.785156 L 14.257812 4.785156 L 14.257812 8.484375 L 3.894531 8.484375 Z M 3.894531 4.785156 " clip-rule="nonzero"/></clipPath><clipPath id="id18"><path d="M 3.996094 0 L 14.355469 0 L 14.355469 3.699219 L 3.996094 3.699219 Z M 3.996094 0 " clip-rule="nonzero"/></clipPath><clipPath id="id19"><path d="M 0.988281 0.269531 L 4.683594 0.269531 L 4.683594 10.632812 L 0.988281 10.632812 Z M 0.988281 0.269531 " clip-rule="nonzero"/></clipPath><clipPath id="id20"><path d="M 15.632812 4.785156 L 28.957031 4.785156 L 28.957031 8.484375 L 15.632812 8.484375 Z M 15.632812 4.785156 " clip-rule="nonzero"/></clipPath><clipPath id="id21"><path d="M 15.632812 0 L 28.957031 0 L 28.957031 3.699219 L 15.632812 3.699219 Z M 15.632812 0 " clip-rule="nonzero"/></clipPath><clipPath id="id22"><path d="M 0.988281 32.902344 L 9.867188 32.902344 L 9.867188 36.601562 L 0.988281 36.601562 Z M 0.988281 32.902344 " clip-rule="nonzero"/></clipPath><clipPath id="id23"><path d="M 20.40625 32.71875 L 29.289062 32.71875 L 29.289062 37.007812 L 20.40625 37.007812 Z M 20.40625 32.71875 " clip-rule="nonzero"/></clipPath><clipPath id="id24"><path d="M 20.402344 22.386719 L 24.101562 22.386719 L 24.101562 32.007812 L 20.402344 32.007812 Z M 20.402344 22.386719 " clip-rule="nonzero"/></clipPath><clipPath id="id25"><path d="M 10.609375 32.902344 L 19.492188 32.902344 L 19.492188 36.601562 L 10.609375 36.601562 Z M 10.609375 32.902344 " clip-rule="nonzero"/></clipPath><clipPath id="id26"><path d="M 5.773438 22.386719 L 9.476562 22.386719 L 9.476562 32.007812 L 5.773438 32.007812 Z M 5.773438 22.386719 " clip-rule="nonzero"/></clipPath></defs><g clip-path="url(#id1)"><path fill="#0a191e" d="M 1.402344 36.820312 L 1.402344 33.121094 L 8.0625 33.121094 L 8.0625 36.820312 L 1.402344 36.820312 " fill-opacity="1" fill-rule="nonzero"/></g><g clip-path="url(#id2)"><path fill="#0a191e" d="M 22.375 36.8125 L 22.375 33.121094 L 27.554688 33.121094 L 27.554688 36.8125 L 22.375 36.8125 " fill-opacity="1" fill-rule="nonzero"/></g><g clip-path="url(#id3)"><path fill="#f1a106" d="M 11.898438 32.90625 L 18.558594 32.90625 L 18.558594 36.601562 L 11.898438 36.601562 L 11.898438 32.90625 " fill-opacity="1" fill-rule="nonzero"/></g><g clip-path="url(#id4)"><path fill="#0a191e" d="M 0.988281 1.257812 L 4.6875 1.257812 L 4.6875 35.300781 L 0.988281 35.300781 L 0.988281 1.257812 " fill-opacity="1" fill-rule="nonzero"/></g><g clip-path="url(#id5)"><path fill="#0a191e" d="M 1.402344 3.917969 L 1.402344 0.21875 L 13.246094 0.21875 L 13.246094 3.917969 L 1.402344 3.917969 " fill-opacity="1" fill-rule="nonzero"/></g><g clip-path="url(#id6)"><path fill="#0a191e" d="M 0.988281 8.703125 L 0.988281 5.003906 L 13.570312 5.003906 L 13.570312 8.703125 L 0.988281 8.703125 " fill-opacity="1" fill-rule="nonzero"/></g><g clip-path="url(#id7)"><path fill="#0a191e" d="M 19.878906 6.304688 L 15.4375 6.304688 L 15.4375 1.863281 L 19.878906 1.863281 L 19.878906 6.304688 " fill-opacity="1" fill-rule="nonzero"/></g><g clip-path="url(#id8)"><path fill="#0a191e" d="M 29.027344 35.992188 L 25.328125 35.992188 L 25.328125 6.386719 L 29.027344 6.386719 L 29.027344 35.992188 " fill-opacity="1" fill-rule="nonzero"/></g><g clip-path="url(#id9)"><path fill="#f1a106" d="M 20.410156 18.410156 L 24.105469 18.410156 L 24.105469 31.734375 L 20.410156 31.734375 L 20.410156 18.410156 " fill-opacity="1" fill-rule="nonzero"/></g><g clip-path="url(#id10)"><path fill="#f1a106" d="M 15.492188 18.410156 L 19.191406 18.410156 L 19.191406 33.953125 L 15.492188 33.953125 L 15.492188 18.410156 " fill-opacity="1" fill-rule="nonzero"/></g><g clip-path="url(#id11)"><path fill="#f1a106" d="M 10.609375 18.410156 L 14.308594 18.410156 L 14.308594 33.953125 L 10.609375 33.953125 L 10.609375 18.410156 " fill-opacity="1" fill-rule="nonzero"/></g><g clip-path="url(#id12)"><path fill="#f1a106" d="M 5.78125 18.410156 L 9.480469 18.410156 L 9.480469 30.253906 L 5.78125 30.253906 L 5.78125 18.410156 " fill-opacity="1" fill-rule="nonzero"/></g><g clip-path="url(#id13)"><path fill="#f1a106" d="M 7.816406 17 L 7.816406 24.402344 C 7.839844 24.402344 7.863281 24.402344 7.882812 24.402344 L 12.457031 24.402344 L 12.457031 17 L 7.816406 17 M 13.039062 17 L 12.457031 17 L 12.457031 24.402344 L 12.472656 24.402344 C 13.40625 24.402344 14.230469 23.664062 14.296875 22.765625 L 14.613281 18.632812 C 14.683594 17.738281 13.972656 17 13.039062 17 M 7.320312 17 C 6.382812 17 5.675781 17.738281 5.742188 18.636719 L 6.058594 22.769531 C 6.128906 23.644531 6.914062 24.367188 7.820312 24.402344 L 7.820312 17 L 7.320312 17 " fill-opacity="1" fill-rule="nonzero"/></g><g clip-path="url(#id14)"><path fill="#f1a106" d="M 17.570312 17 L 17.570312 24.402344 C 17.59375 24.402344 17.617188 24.402344 17.636719 24.402344 L 22.210938 24.402344 L 22.210938 17 L 17.570312 17 M 22.792969 17 L 22.210938 17 L 22.210938 24.402344 L 22.226562 24.402344 C 23.160156 24.402344 23.984375 23.664062 24.050781 22.765625 L 24.367188 18.632812 C 24.4375 17.738281 23.726562 17 22.792969 17 M 17.074219 17 C 16.136719 17 15.429688 17.738281 15.496094 18.636719 L 15.8125 22.769531 C 15.882812 23.644531 16.664062 24.367188 17.574219 24.402344 L 17.574219 17 L 17.074219 17 " fill-opacity="1" fill-rule="nonzero"/></g><g clip-path="url(#id15)"><path fill="#76b3ba" d="M 12.742188 16.503906 L 12.742188 9.84375 C 12.722656 9.84375 12.703125 9.84375 12.683594 9.84375 L 7.703125 9.84375 L 7.703125 16.503906 L 12.742188 16.503906 M 7.179688 16.503906 L 7.703125 16.503906 L 7.703125 9.84375 L 7.691406 9.84375 C 6.84375 9.84375 6.101562 10.507812 6.039062 11.316406 L 5.753906 15.035156 C 5.691406 15.84375 6.332031 16.503906 7.179688 16.503906 M 13.195312 16.503906 C 14.039062 16.503906 14.679688 15.84375 14.617188 15.035156 L 14.332031 11.316406 C 14.269531 10.523438 13.5625 9.875 12.742188 9.84375 L 12.742188 16.503906 L 13.195312 16.503906 " fill-opacity="1" fill-rule="nonzero"/></g><g clip-path="url(#id16)"><path fill="#76b3ba" d="M 22.355469 16.503906 L 22.355469 9.84375 C 22.335938 9.84375 22.3125 9.84375 22.292969 9.84375 L 17.402344 9.84375 L 17.402344 16.503906 L 22.355469 16.503906 M 16.867188 16.503906 L 17.402344 16.503906 L 17.402344 9.84375 L 17.390625 9.84375 C 16.527344 9.84375 15.765625 10.507812 15.703125 11.316406 L 15.410156 15.035156 C 15.347656 15.84375 16.003906 16.503906 16.867188 16.503906 M 22.816406 16.503906 C 23.679688 16.503906 24.335938 15.84375 24.273438 15.035156 L 23.980469 11.316406 C 23.917969 10.523438 23.191406 9.875 22.355469 9.84375 L 22.355469 16.503906 L 22.816406 16.503906 " fill-opacity="1" fill-rule="nonzero"/></g><g clip-path="url(#id17)"><path fill="#0a191e" d="M 13.582031 8.484375 L 4.566406 8.484375 C 4.195312 8.484375 3.894531 8.191406 3.894531 7.832031 L 3.894531 5.4375 C 3.894531 5.078125 4.195312 4.785156 4.566406 4.785156 L 13.582031 4.785156 C 13.953125 4.785156 14.257812 5.078125 14.257812 5.4375 L 14.257812 7.832031 C 14.257812 8.191406 13.953125 8.484375 13.582031 8.484375 " fill-opacity="1" fill-rule="nonzero"/></g><g clip-path="url(#id18)"><path fill="#0a191e" d="M 13.683594 3.699219 L 4.667969 3.699219 C 4.296875 3.699219 3.996094 3.40625 3.996094 3.046875 L 3.996094 0.652344 C 3.996094 0.292969 4.296875 0 4.667969 0 L 13.683594 0 C 14.054688 0 14.355469 0.292969 14.355469 0.652344 L 14.355469 3.046875 C 14.355469 3.40625 14.054688 3.699219 13.683594 3.699219 " fill-opacity="1" fill-rule="nonzero"/></g><g clip-path="url(#id19)"><path fill="#0a191e" d="M 4.683594 0.945312 L 4.683594 9.957031 C 4.683594 10.328125 4.390625 10.632812 4.03125 10.632812 L 1.636719 10.632812 C 1.277344 10.632812 0.984375 10.328125 0.984375 9.957031 L 0.984375 0.945312 C 0.984375 0.574219 1.277344 0.269531 1.636719 0.269531 L 4.03125 0.269531 C 4.390625 0.269531 4.683594 0.574219 4.683594 0.945312 " fill-opacity="1" fill-rule="nonzero"/></g><g clip-path="url(#id20)"><path fill="#0a191e" d="M 28.269531 8.484375 L 16.320312 8.484375 C 15.941406 8.484375 15.632812 8.191406 15.632812 7.832031 L 15.632812 5.4375 C 15.632812 5.078125 15.941406 4.785156 16.320312 4.785156 L 28.269531 4.785156 C 28.648438 4.785156 28.957031 5.078125 28.957031 5.4375 L 28.957031 7.832031 C 28.957031 8.191406 28.648438 8.484375 28.269531 8.484375 " fill-opacity="1" fill-rule="nonzero"/></g><g clip-path="url(#id21)"><path fill="#0a191e" d="M 28.273438 3.699219 L 16.3125 3.699219 C 15.9375 3.699219 15.632812 3.40625 15.632812 3.046875 L 15.632812 0.652344 C 15.632812 0.292969 15.9375 0 16.3125 0 L 28.273438 0 C 28.648438 0 28.957031 0.292969 28.957031 0.652344 L 28.957031 3.046875 C 28.957031 3.40625 28.648438 3.699219 28.273438 3.699219 " fill-opacity="1" fill-rule="nonzero"/></g><g clip-path="url(#id22)"><path fill="#0a191e" d="M 9.164062 36.601562 L 1.691406 36.601562 C 1.304688 36.601562 0.988281 36.308594 0.988281 35.949219 L 0.988281 33.554688 C 0.988281 33.195312 1.304688 32.902344 1.691406 32.902344 L 9.164062 32.902344 C 9.550781 32.902344 9.867188 33.195312 9.867188 33.554688 L 9.867188 35.949219 C 9.867188 36.308594 9.550781 36.601562 9.164062 36.601562 " fill-opacity="1" fill-rule="nonzero"/></g><g clip-path="url(#id23)"><path fill="#0a191e" d="M 28.570312 37.160156 L 21.125 37.160156 C 20.734375 37.160156 20.414062 36.835938 20.414062 36.441406 L 20.414062 33.433594 C 20.414062 33.039062 20.734375 32.71875 21.125 32.71875 L 28.570312 32.71875 C 28.964844 32.71875 29.28125 33.039062 29.28125 33.433594 L 29.28125 36.441406 C 29.28125 36.835938 28.964844 37.160156 28.570312 37.160156 " fill-opacity="1" fill-rule="nonzero"/></g><g clip-path="url(#id24)"><path fill="#f1a106" d="M 24.101562 23.09375 L 24.101562 31.300781 C 24.101562 31.691406 23.808594 32.007812 23.449219 32.007812 L 21.054688 32.007812 C 20.699219 32.007812 20.40625 31.691406 20.40625 31.300781 L 20.40625 23.09375 C 20.40625 22.707031 20.699219 22.386719 21.054688 22.386719 L 23.449219 22.386719 C 23.808594 22.386719 24.101562 22.707031 24.101562 23.09375 " fill-opacity="1" fill-rule="nonzero"/></g><g clip-path="url(#id25)"><path fill="#f1a106" d="M 18.800781 36.601562 L 11.300781 36.601562 C 10.921875 36.601562 10.609375 36.308594 10.609375 35.949219 L 10.609375 33.554688 C 10.609375 33.195312 10.921875 32.902344 11.300781 32.902344 L 18.800781 32.902344 C 19.179688 32.902344 19.492188 33.195312 19.492188 33.554688 L 19.492188 35.949219 C 19.492188 36.308594 19.179688 36.601562 18.800781 36.601562 " fill-opacity="1" fill-rule="nonzero"/></g><g clip-path="url(#id26)"><path fill="#f1a106" d="M 9.472656 23.09375 L 9.472656 31.300781 C 9.472656 31.691406 9.179688 32.007812 8.820312 32.007812 L 6.429688 32.007812 C 6.070312 32.007812 5.777344 31.691406 5.777344 31.300781 L 5.777344 23.09375 C 5.777344 22.707031 6.070312 22.386719 6.429688 22.386719 L 8.820312 22.386719 C 9.179688 22.386719 9.472656 22.707031 9.472656 23.09375 " fill-opacity="1" fill-rule="nonzero"/></g><g fill="#0a191e" fill-opacity="1"><g transform="translate(39.532998, 30.578002)"><g><path d="M 3 0 L 3 -24.046875 L 27.046875 -24.046875 L 27.046875 -21.546875 L 6.015625 -21.546875 L 6.015625 -13.53125 L 26.046875 -13.53125 L 26.046875 -11.015625 L 6.015625 -11.015625 L 6.015625 -2.5 L 27.046875 -2.5 L 27.046875 0 Z M 3 0 "/></g></g></g><g fill="#0a191e" fill-opacity="1"><g transform="translate(69.902398, 30.578002)"><g><path d="M 6.015625 -22.046875 L 6.015625 0 L 3 0 L 3 -24.046875 L 8.015625 -24.046875 L 22.03125 -3 L 36.03125 -24.046875 L 40.828125 -24.046875 L 40.828125 0 L 37.828125 0 L 37.828125 -21.71875 L 23.546875 0 L 20.515625 0 Z M 6.015625 -22.046875 "/></g></g></g><g fill="#0a191e" fill-opacity="1"><g transform="translate(116.05552, 30.578002)"><g><path d="M 18.15625 -13.53125 C 19.8125 -13.53125 21.226562 -13.460938 22.40625 -13.328125 C 23.582031 -13.191406 24.570312 -12.988281 25.375 -12.71875 C 26.1875 -12.457031 26.832031 -12.125 27.3125 -11.71875 C 27.789062 -11.320312 28.160156 -10.867188 28.421875 -10.359375 C 28.691406 -9.859375 28.863281 -9.296875 28.9375 -8.671875 C 29.019531 -8.046875 29.0625 -7.367188 29.0625 -6.640625 C 29.0625 -5.910156 28.992188 -5.222656 28.859375 -4.578125 C 28.734375 -3.929688 28.5 -3.34375 28.15625 -2.8125 C 27.820312 -2.28125 27.367188 -1.804688 26.796875 -1.390625 C 26.222656 -0.972656 25.492188 -0.617188 24.609375 -0.328125 C 23.722656 -0.0351562 22.65625 0.179688 21.40625 0.328125 C 20.15625 0.484375 18.695312 0.5625 17.03125 0.5625 L 13.03125 0.5625 C 11.519531 0.5625 10.203125 0.503906 9.078125 0.390625 C 7.953125 0.273438 6.984375 0.101562 6.171875 -0.125 C 5.359375 -0.363281 4.679688 -0.660156 4.140625 -1.015625 C 3.609375 -1.378906 3.179688 -1.800781 2.859375 -2.28125 C 2.546875 -2.769531 2.328125 -3.328125 2.203125 -3.953125 C 2.078125 -4.578125 2.015625 -5.265625 2.015625 -6.015625 L 5.03125 -6.015625 C 5.03125 -5.078125 5.164062 -4.335938 5.4375 -3.796875 C 5.707031 -3.265625 6.15625 -2.863281 6.78125 -2.59375 C 7.40625 -2.332031 8.222656 -2.164062 9.234375 -2.09375 C 10.253906 -2.03125 11.519531 -2 13.03125 -2 L 17.03125 -2 C 18.78125 -2 20.234375 -2.082031 21.390625 -2.25 C 22.554688 -2.414062 23.484375 -2.679688 24.171875 -3.046875 C 24.859375 -3.410156 25.34375 -3.890625 25.625 -4.484375 C 25.90625 -5.078125 26.046875 -5.796875 26.046875 -6.640625 C 26.046875 -7.484375 25.945312 -8.1875 25.75 -8.75 C 25.5625 -9.3125 25.179688 -9.757812 24.609375 -10.09375 C 24.046875 -10.425781 23.25 -10.660156 22.21875 -10.796875 C 21.1875 -10.941406 19.832031 -11.015625 18.15625 -11.015625 L 14.03125 -11.015625 C 12.1875 -11.015625 10.609375 -11.082031 9.296875 -11.21875 C 7.992188 -11.351562 6.898438 -11.550781 6.015625 -11.8125 C 5.128906 -12.070312 4.414062 -12.390625 3.875 -12.765625 C 3.34375 -13.148438 2.9375 -13.585938 2.65625 -14.078125 C 2.382812 -14.566406 2.207031 -15.109375 2.125 -15.703125 C 2.039062 -16.304688 2 -16.957031 2 -17.65625 C 2 -18.382812 2.0625 -19.0625 2.1875 -19.6875 C 2.320312 -20.320312 2.566406 -20.890625 2.921875 -21.390625 C 3.273438 -21.898438 3.757812 -22.351562 4.375 -22.75 C 5 -23.144531 5.789062 -23.472656 6.75 -23.734375 C 7.71875 -24.003906 8.878906 -24.207031 10.234375 -24.34375 C 11.597656 -24.476562 13.195312 -24.546875 15.03125 -24.546875 L 18.03125 -24.546875 C 19.539062 -24.546875 20.859375 -24.488281 21.984375 -24.375 C 23.109375 -24.269531 24.078125 -24.097656 24.890625 -23.859375 C 25.703125 -23.628906 26.375 -23.335938 26.90625 -22.984375 C 27.445312 -22.640625 27.878906 -22.222656 28.203125 -21.734375 C 28.523438 -21.253906 28.75 -20.703125 28.875 -20.078125 C 29 -19.460938 29.0625 -18.78125 29.0625 -18.03125 L 26.046875 -18.03125 C 26.046875 -18.96875 25.910156 -19.703125 25.640625 -20.234375 C 25.367188 -20.773438 24.921875 -21.175781 24.296875 -21.4375 C 23.671875 -21.707031 22.847656 -21.875 21.828125 -21.9375 C 20.804688 -22.007812 19.539062 -22.046875 18.03125 -22.046875 L 15.03125 -22.046875 C 13.03125 -22.046875 11.378906 -21.972656 10.078125 -21.828125 C 8.785156 -21.691406 7.765625 -21.457031 7.015625 -21.125 C 6.265625 -20.789062 5.742188 -20.335938 5.453125 -19.765625 C 5.160156 -19.203125 5.015625 -18.5 5.015625 -17.65625 C 5.015625 -17.132812 5.050781 -16.671875 5.125 -16.265625 C 5.195312 -15.859375 5.34375 -15.5 5.5625 -15.1875 C 5.789062 -14.882812 6.109375 -14.628906 6.515625 -14.421875 C 6.921875 -14.210938 7.457031 -14.039062 8.125 -13.90625 C 8.789062 -13.769531 9.609375 -13.671875 10.578125 -13.609375 C 11.546875 -13.554688 12.695312 -13.53125 14.03125 -13.53125 Z M 18.15625 -13.53125 "/></g></g></g></svg>