<svg xmlns="http://www.w3.org/2000/svg" xmlns:xlink="http://www.w3.org/1999/xlink" width="130" zoomAndPan="magnify" viewBox="0 0 97.5 97.499997" height="130" preserveAspectRatio="xMidYMid meet" version="1.0"><defs><clipPath id="id1"><path d="M 0 0 L 97.003906 0 L 97.003906 97.003906 L 0 97.003906 Z M 0 0 " clip-rule="nonzero"/></clipPath></defs><g clip-path="url(#id1)"><path fill="#ffffff" d="M 7.617188 56.367188 C 9.371094 56.367188 10.96875 55.757812 12.1875 54.765625 C 12.492188 58.042969 14.851562 60.707031 17.976562 61.46875 C 16.300781 64.210938 16.53125 67.792969 18.585938 70.304688 C 16.984375 70.535156 15.460938 71.21875 14.246094 72.4375 C 11.273438 75.410156 11.273438 80.207031 14.246094 83.179688 C 15.691406 84.625 17.671875 85.386719 19.652344 85.386719 C 21.632812 85.386719 23.539062 84.625 25.058594 83.179688 C 26.277344 81.960938 26.964844 80.4375 27.191406 78.835938 C 29.707031 80.894531 33.285156 81.121094 36.027344 79.445312 C 36.789062 82.570312 39.457031 84.929688 42.730469 85.234375 C 41.742188 86.53125 41.132812 88.128906 41.132812 89.804688 C 41.132812 93.996094 44.558594 97.421875 48.75 97.421875 C 52.9375 97.421875 56.367188 93.996094 56.367188 89.804688 C 56.367188 88.054688 55.757812 86.453125 54.765625 85.234375 C 58.042969 84.929688 60.707031 82.570312 61.46875 79.445312 C 64.210938 81.121094 67.792969 80.894531 70.304688 78.835938 C 70.535156 80.4375 71.21875 81.960938 72.4375 83.179688 C 73.886719 84.625 75.867188 85.386719 77.847656 85.386719 C 79.828125 85.386719 81.730469 84.625 83.253906 83.179688 C 86.226562 80.207031 86.226562 75.410156 83.253906 72.4375 C 82.035156 71.21875 80.511719 70.535156 78.914062 70.304688 C 80.96875 67.792969 81.199219 64.210938 79.523438 61.46875 C 82.644531 60.707031 85.007812 58.042969 85.3125 54.765625 C 86.605469 55.757812 88.207031 56.367188 89.882812 56.367188 C 94.070312 56.367188 97.5 52.9375 97.5 48.75 C 97.5 44.558594 94.070312 41.132812 89.882812 41.132812 C 88.128906 41.132812 86.53125 41.742188 85.3125 42.730469 C 85.007812 39.457031 82.644531 36.789062 79.523438 36.027344 C 81.199219 33.285156 80.96875 29.707031 78.914062 27.191406 C 80.511719 26.964844 82.035156 26.277344 83.253906 25.058594 C 86.226562 22.089844 86.226562 17.289062 83.253906 14.320312 C 80.285156 11.347656 75.484375 11.347656 72.515625 14.320312 C 71.296875 15.539062 70.609375 17.0625 70.382812 18.660156 C 67.867188 16.605469 64.289062 16.375 61.546875 18.050781 C 60.785156 14.929688 58.117188 12.566406 54.84375 12.261719 C 55.832031 10.96875 56.441406 9.367188 56.441406 7.691406 C 56.441406 3.503906 53.015625 0.0742188 48.824219 0.0742188 C 44.636719 0.0742188 41.132812 3.425781 41.132812 7.617188 C 41.132812 9.367188 41.742188 10.96875 42.730469 12.1875 C 39.457031 12.492188 36.789062 14.851562 36.027344 17.976562 C 33.285156 16.300781 29.707031 16.527344 27.191406 18.585938 C 26.964844 16.984375 26.277344 15.460938 25.058594 14.242188 C 22.089844 11.273438 17.289062 11.273438 14.320312 14.242188 C 11.347656 17.214844 11.347656 22.011719 14.320312 24.984375 C 15.539062 26.203125 17.0625 26.886719 18.660156 27.117188 C 16.605469 29.628906 16.375 33.210938 18.050781 35.953125 C 14.929688 36.714844 12.566406 39.378906 12.261719 42.65625 C 10.96875 41.664062 9.367188 41.054688 7.691406 41.054688 C 3.429688 41.132812 0 44.558594 0 48.75 C 0 52.9375 3.429688 56.367188 7.617188 56.367188 Z M 89.882812 44.179688 C 92.394531 44.179688 94.453125 46.234375 94.453125 48.75 C 94.453125 51.261719 92.394531 53.320312 89.882812 53.320312 C 87.367188 53.320312 85.3125 51.261719 85.3125 48.75 C 85.3125 46.234375 87.367188 44.179688 89.882812 44.179688 Z M 22.925781 81.046875 C 21.175781 82.796875 18.28125 82.796875 16.453125 81.046875 C 14.703125 79.292969 14.703125 76.398438 16.453125 74.570312 C 17.367188 73.65625 18.507812 73.199219 19.652344 73.199219 C 20.792969 73.199219 22.011719 73.65625 22.851562 74.570312 C 24.679688 76.398438 24.679688 79.292969 22.925781 81.046875 Z M 48.75 94.453125 C 46.234375 94.453125 44.179688 92.394531 44.179688 89.882812 C 44.179688 87.367188 46.234375 85.3125 48.75 85.3125 C 51.261719 85.3125 53.320312 87.367188 53.320312 89.882812 C 53.320312 92.394531 51.261719 94.453125 48.75 94.453125 Z M 81.046875 74.570312 C 82.796875 76.324219 82.796875 79.21875 81.046875 81.046875 C 79.292969 82.796875 76.398438 82.796875 74.570312 81.046875 C 72.820312 79.292969 72.820312 76.398438 74.570312 74.570312 C 76.398438 72.820312 79.292969 72.820312 81.046875 74.570312 Z M 74.570312 16.453125 C 75.484375 15.539062 76.628906 15.082031 77.769531 15.082031 C 78.914062 15.082031 80.132812 15.539062 80.96875 16.453125 C 82.722656 18.203125 82.722656 21.097656 80.96875 22.925781 C 79.21875 24.679688 76.324219 24.679688 74.496094 22.925781 C 72.820312 21.097656 72.820312 18.203125 74.570312 16.453125 Z M 48.75 3.046875 C 51.261719 3.046875 53.320312 5.101562 53.320312 7.617188 C 53.320312 10.128906 51.261719 12.1875 48.75 12.1875 C 46.234375 12.1875 44.179688 10.128906 44.179688 7.617188 C 44.179688 5.101562 46.234375 3.046875 48.75 3.046875 Z M 16.453125 22.925781 C 14.703125 21.175781 14.703125 18.28125 16.453125 16.453125 C 18.203125 14.699219 21.097656 14.699219 22.925781 16.453125 C 24.679688 18.203125 24.679688 21.097656 22.925781 22.925781 C 21.097656 24.679688 18.203125 24.679688 16.453125 22.925781 Z M 15.234375 43.417969 C 15.234375 40.902344 17.292969 38.847656 19.804688 38.847656 L 21.175781 38.847656 C 21.785156 38.847656 22.316406 38.464844 22.546875 37.933594 C 22.773438 37.398438 22.621094 36.714844 22.242188 36.257812 L 21.25 35.265625 C 19.5 33.515625 19.5 30.621094 21.25 28.792969 L 28.792969 21.25 C 30.542969 19.5 33.4375 19.5 35.265625 21.25 L 36.257812 22.242188 C 36.714844 22.699219 37.324219 22.773438 37.933594 22.546875 C 38.464844 22.316406 38.847656 21.785156 38.847656 21.175781 L 38.847656 19.804688 C 38.847656 17.289062 40.902344 15.234375 43.417969 15.234375 L 54.082031 15.234375 C 56.59375 15.234375 58.652344 17.289062 58.652344 19.804688 L 58.652344 21.175781 C 58.652344 21.785156 59.03125 22.316406 59.566406 22.546875 C 60.097656 22.773438 60.785156 22.621094 61.242188 22.242188 L 62.230469 21.25 C 63.984375 19.5 66.878906 19.5 68.707031 21.25 L 76.246094 28.792969 C 78 30.542969 78 33.4375 76.246094 35.265625 L 75.257812 36.257812 C 74.800781 36.714844 74.722656 37.324219 74.953125 37.933594 C 75.179688 38.464844 75.714844 38.847656 76.324219 38.847656 L 77.695312 38.847656 C 80.207031 38.847656 82.265625 40.902344 82.265625 43.417969 L 82.265625 54.082031 C 82.265625 56.59375 80.207031 58.652344 77.695312 58.652344 L 76.324219 58.652344 C 75.714844 58.652344 75.179688 59.03125 74.953125 59.566406 C 74.722656 60.097656 74.875 60.785156 75.257812 61.242188 L 76.246094 62.230469 C 78 63.984375 78 66.878906 76.246094 68.707031 L 68.707031 76.246094 C 66.953125 78 64.058594 78 62.230469 76.246094 L 61.242188 75.257812 C 60.785156 74.800781 60.175781 74.722656 59.566406 74.953125 C 59.03125 75.179688 58.652344 75.714844 58.652344 76.324219 L 58.652344 77.695312 C 58.652344 80.207031 56.59375 82.265625 54.082031 82.265625 L 43.417969 82.265625 C 40.902344 82.265625 38.847656 80.207031 38.847656 77.695312 L 38.847656 76.324219 C 38.847656 75.714844 38.464844 75.179688 37.933594 74.953125 C 37.78125 74.875 37.550781 74.800781 37.324219 74.800781 C 36.941406 74.800781 36.5625 74.953125 36.257812 75.257812 L 35.265625 76.246094 C 33.515625 78 30.621094 78 28.792969 76.246094 L 21.25 68.707031 C 19.5 66.953125 19.5 64.058594 21.25 62.230469 L 22.242188 61.242188 C 22.699219 60.785156 22.773438 60.175781 22.546875 59.566406 C 22.316406 59.03125 21.785156 58.652344 21.175781 58.652344 L 19.804688 58.652344 C 17.292969 58.652344 15.234375 56.59375 15.234375 54.082031 Z M 7.617188 44.179688 C 10.132812 44.179688 12.1875 46.234375 12.1875 48.75 C 12.1875 51.261719 10.132812 53.320312 7.617188 53.320312 C 5.105469 53.320312 3.046875 51.261719 3.046875 48.75 C 3.046875 46.234375 5.105469 44.179688 7.617188 44.179688 Z M 7.617188 44.179688 " fill-opacity="1" fill-rule="nonzero"/></g><path fill="#ffffff" d="M 48.75 73.277344 C 62.230469 73.277344 73.277344 62.308594 73.277344 48.75 C 73.277344 35.191406 62.230469 24.222656 48.75 24.222656 C 35.265625 24.222656 24.222656 35.265625 24.222656 48.75 C 24.222656 62.230469 35.265625 73.277344 48.75 73.277344 Z M 48.75 27.269531 C 60.554688 27.269531 70.230469 36.867188 70.230469 48.75 C 70.230469 60.632812 60.554688 70.230469 48.75 70.230469 C 36.941406 70.230469 27.269531 60.554688 27.269531 48.75 C 27.269531 36.941406 36.941406 27.269531 48.75 27.269531 Z M 48.75 27.269531 " fill-opacity="1" fill-rule="nonzero"/><path fill="#ffffff" d="M 46.921875 52.558594 L 50.578125 52.558594 C 52.175781 52.558594 53.472656 51.339844 53.625 49.738281 L 54.84375 36.027344 C 54.917969 35.191406 54.613281 34.351562 54.082031 33.667969 C 53.472656 33.132812 52.632812 32.753906 51.796875 32.753906 L 45.703125 32.753906 C 44.863281 32.753906 44.027344 33.132812 43.492188 33.742188 C 42.882812 34.351562 42.65625 35.191406 42.730469 36.105469 L 43.949219 49.816406 C 44.027344 51.339844 45.320312 52.558594 46.921875 52.558594 Z M 51.796875 35.800781 L 50.578125 49.511719 L 46.921875 49.511719 L 45.703125 35.800781 Z M 51.796875 35.800781 " fill-opacity="1" fill-rule="nonzero"/><path fill="#ffffff" d="M 50.273438 55.605469 L 47.226562 55.605469 C 45.550781 55.605469 44.179688 56.976562 44.179688 58.652344 L 44.179688 61.699219 C 44.179688 63.375 45.550781 64.746094 47.226562 64.746094 L 50.273438 64.746094 C 51.949219 64.746094 53.320312 63.375 53.320312 61.699219 L 53.320312 58.652344 C 53.320312 56.976562 51.949219 55.605469 50.273438 55.605469 Z M 50.273438 61.699219 L 47.226562 61.699219 L 47.226562 58.652344 L 50.273438 58.652344 Z M 50.273438 61.699219 " fill-opacity="1" fill-rule="nonzero"/></svg>