<svg xmlns="http://www.w3.org/2000/svg" xmlns:xlink="http://www.w3.org/1999/xlink" width="500" zoomAndPan="magnify" viewBox="0 0 375 37.5" height="50" preserveAspectRatio="xMidYMid meet" version="1.0"><defs><clipPath id="id1"><path d="M 185 0 L 187.570312 0 L 187.570312 37 L 185 37 Z M 185 0 " clip-rule="nonzero"/></clipPath><clipPath id="id2"><path d="M 192.011719 0 L 197 0 L 197 36.78125 L 192.011719 36.78125 Z M 192.011719 0 " clip-rule="nonzero"/></clipPath><clipPath id="id3"><path d="M 205 0 L 210 0 L 210 36.78125 L 205 36.78125 Z M 205 0 " clip-rule="nonzero"/></clipPath><clipPath id="id4"><path d="M 212 0 L 217 0 L 217 36.78125 L 212 36.78125 Z M 212 0 " clip-rule="nonzero"/></clipPath><clipPath id="id5"><path d="M 219 0 L 224 0 L 224 36.78125 L 219 36.78125 Z M 219 0 " clip-rule="nonzero"/></clipPath><clipPath id="id6"><path d="M 237 0 L 242 0 L 242 36.78125 L 237 36.78125 Z M 237 0 " clip-rule="nonzero"/></clipPath><clipPath id="id7"><path d="M 242 0 L 246 0 L 246 36.78125 L 242 36.78125 Z M 242 0 " clip-rule="nonzero"/></clipPath><clipPath id="id8"><path d="M 258 0 L 263 0 L 263 36.78125 L 258 36.78125 Z M 258 0 " clip-rule="nonzero"/></clipPath><clipPath id="id9"><path d="M 265 0 L 270 0 L 270 36.78125 L 265 36.78125 Z M 265 0 " clip-rule="nonzero"/></clipPath><clipPath id="id10"><path d="M 274 0 L 279 0 L 279 36.78125 L 274 36.78125 Z M 274 0 " clip-rule="nonzero"/></clipPath><clipPath id="id11"><path d="M 282 0 L 286 0 L 286 36.78125 L 282 36.78125 Z M 282 0 " clip-rule="nonzero"/></clipPath><clipPath id="id12"><path d="M 297 0 L 302 0 L 302 36.78125 L 297 36.78125 Z M 297 0 " clip-rule="nonzero"/></clipPath><clipPath id="id13"><path d="M 302 0 L 307 0 L 307 36.78125 L 302 36.78125 Z M 302 0 " clip-rule="nonzero"/></clipPath><clipPath id="id14"><path d="M 312 0 L 317 0 L 317 36.78125 L 312 36.78125 Z M 312 0 " clip-rule="nonzero"/></clipPath><clipPath id="id15"><path d="M 328 0 L 332 0 L 332 36.78125 L 328 36.78125 Z M 328 0 " clip-rule="nonzero"/></clipPath><clipPath id="id16"><path d="M 335 0 L 339 0 L 339 36.78125 L 335 36.78125 Z M 335 0 " clip-rule="nonzero"/></clipPath><clipPath id="id17"><path d="M 340 0 L 344 0 L 344 36.78125 L 340 36.78125 Z M 340 0 " clip-rule="nonzero"/></clipPath><clipPath id="id18"><path d="M 355 0 L 359 0 L 359 36.78125 L 355 36.78125 Z M 355 0 " clip-rule="nonzero"/></clipPath><clipPath id="id19"><path d="M 359 0 L 364 0 L 364 36.78125 L 359 36.78125 Z M 359 0 " clip-rule="nonzero"/></clipPath><clipPath id="id20"><path d="M 197 0 L 199 0 L 199 36.78125 L 197 36.78125 Z M 197 0 " clip-rule="nonzero"/></clipPath><clipPath id="id21"><path d="M 210 0 L 212 0 L 212 36.78125 L 210 36.78125 Z M 210 0 " clip-rule="nonzero"/></clipPath><clipPath id="id22"><path d="M 217 0 L 219 0 L 219 36.78125 L 217 36.78125 Z M 217 0 " clip-rule="nonzero"/></clipPath><clipPath id="id23"><path d="M 224 0 L 226 0 L 226 36.78125 L 224 36.78125 Z M 224 0 " clip-rule="nonzero"/></clipPath><clipPath id="id24"><path d="M 230 0 L 232 0 L 232 36.78125 L 230 36.78125 Z M 230 0 " clip-rule="nonzero"/></clipPath><clipPath id="id25"><path d="M 232 0 L 235 0 L 235 36.78125 L 232 36.78125 Z M 232 0 " clip-rule="nonzero"/></clipPath><clipPath id="id26"><path d="M 235 0 L 237 0 L 237 36.78125 L 235 36.78125 Z M 235 0 " clip-rule="nonzero"/></clipPath><clipPath id="id27"><path d="M 250 0 L 252 0 L 252 36.78125 L 250 36.78125 Z M 250 0 " clip-rule="nonzero"/></clipPath><clipPath id="id28"><path d="M 252 0 L 254 0 L 254 36.78125 L 252 36.78125 Z M 252 0 " clip-rule="nonzero"/></clipPath><clipPath id="id29"><path d="M 263 0 L 265 0 L 265 36.78125 L 263 36.78125 Z M 263 0 " clip-rule="nonzero"/></clipPath><clipPath id="id30"><path d="M 270 0 L 272 0 L 272 36.78125 L 270 36.78125 Z M 270 0 " clip-rule="nonzero"/></clipPath><clipPath id="id31"><path d="M 272 0 L 275 0 L 275 36.78125 L 272 36.78125 Z M 272 0 " clip-rule="nonzero"/></clipPath><clipPath id="id32"><path d="M 280 0 L 282 0 L 282 36.78125 L 280 36.78125 Z M 280 0 " clip-rule="nonzero"/></clipPath><clipPath id="id33"><path d="M 290 0 L 292 0 L 292 36.78125 L 290 36.78125 Z M 290 0 " clip-rule="nonzero"/></clipPath><clipPath id="id34"><path d="M 292 0 L 295 0 L 295 36.78125 L 292 36.78125 Z M 292 0 " clip-rule="nonzero"/></clipPath><clipPath id="id35"><path d="M 295 0 L 297 0 L 297 36.78125 L 295 36.78125 Z M 295 0 " clip-rule="nonzero"/></clipPath><clipPath id="id36"><path d="M 310 0 L 312 0 L 312 36.78125 L 310 36.78125 Z M 310 0 " clip-rule="nonzero"/></clipPath><clipPath id="id37"><path d="M 321 0 L 323 0 L 323 36.78125 L 321 36.78125 Z M 321 0 " clip-rule="nonzero"/></clipPath><clipPath id="id38"><path d="M 323 0 L 325 0 L 325 36.78125 L 323 36.78125 Z M 323 0 " clip-rule="nonzero"/></clipPath><clipPath id="id39"><path d="M 326 0 L 328 0 L 328 36.78125 L 326 36.78125 Z M 326 0 " clip-rule="nonzero"/></clipPath><clipPath id="id40"><path d="M 332 0 L 335 0 L 335 36.78125 L 332 36.78125 Z M 332 0 " clip-rule="nonzero"/></clipPath><clipPath id="id41"><path d="M 348 0 L 350 0 L 350 36.78125 L 348 36.78125 Z M 348 0 " clip-rule="nonzero"/></clipPath><clipPath id="id42"><path d="M 350 0 L 352 0 L 352 36.78125 L 350 36.78125 Z M 350 0 " clip-rule="nonzero"/></clipPath><clipPath id="id43"><path d="M 353 0 L 355 0 L 355 36.78125 L 353 36.78125 Z M 353 0 " clip-rule="nonzero"/></clipPath><clipPath id="id44"><path d="M 368 0 L 370 0 L 370 36.78125 L 368 36.78125 Z M 368 0 " clip-rule="nonzero"/></clipPath><clipPath id="id45"><path d="M 370 0 L 372.53125 0 L 372.53125 36.78125 L 370 36.78125 Z M 370 0 " clip-rule="nonzero"/></clipPath><clipPath id="id46"><path d="M 199 0 L 201 0 L 201 36.78125 L 199 36.78125 Z M 199 0 " clip-rule="nonzero"/></clipPath><clipPath id="id47"><path d="M 2.46875 0 L 4 0 L 4 36.78125 L 2.46875 36.78125 Z M 2.46875 0 " clip-rule="nonzero"/></clipPath><clipPath id="id48"><path d="M 4 0 L 6 0 L 6 36.78125 L 4 36.78125 Z M 4 0 " clip-rule="nonzero"/></clipPath></defs><path fill="#000000" d="M 11.058594 36.984375 L 7.480469 36.984375 L 7.480469 -0.0117188 L 11.058594 -0.0117188 L 11.058594 36.984375 " fill-opacity="1" fill-rule="nonzero"/><path fill="#000000" d="M 24.21875 36.984375 L 20.640625 36.984375 L 20.640625 -0.0117188 L 24.21875 -0.0117188 L 24.21875 36.984375 " fill-opacity="1" fill-rule="nonzero"/><path fill="#000000" d="M 31.515625 36.984375 L 27.9375 36.984375 L 27.9375 -0.0117188 L 31.515625 -0.0117188 L 31.515625 36.984375 " fill-opacity="1" fill-rule="nonzero"/><path fill="#000000" d="M 38.375 36.984375 L 34.796875 36.984375 L 34.796875 -0.0117188 L 38.375 -0.0117188 L 38.375 36.984375 " fill-opacity="1" fill-rule="nonzero"/><path fill="#000000" d="M 56.089844 36.984375 L 52.511719 36.984375 L 52.511719 -0.0117188 L 56.089844 -0.0117188 L 56.089844 36.984375 " fill-opacity="1" fill-rule="nonzero"/><path fill="#000000" d="M 60.953125 36.984375 L 57.375 36.984375 L 57.375 -0.0117188 L 60.953125 -0.0117188 L 60.953125 36.984375 " fill-opacity="1" fill-rule="nonzero"/><path fill="#000000" d="M 77.292969 36.984375 L 73.714844 36.984375 L 73.714844 -0.0117188 L 77.292969 -0.0117188 L 77.292969 36.984375 " fill-opacity="1" fill-rule="nonzero"/><path fill="#000000" d="M 84.21875 36.984375 L 80.636719 36.984375 L 80.636719 -0.0117188 L 84.21875 -0.0117188 L 84.21875 36.984375 " fill-opacity="1" fill-rule="nonzero"/><path fill="#000000" d="M 93.507812 36.984375 L 89.929688 36.984375 L 89.929688 -0.0117188 L 93.507812 -0.0117188 L 93.507812 36.984375 " fill-opacity="1" fill-rule="nonzero"/><path fill="#000000" d="M 100.742188 36.984375 L 97.167969 36.984375 L 97.167969 -0.0117188 L 100.742188 -0.0117188 L 100.742188 36.984375 " fill-opacity="1" fill-rule="nonzero"/><path fill="#000000" d="M 116.335938 36.984375 L 112.757812 36.984375 L 112.757812 -0.0117188 L 116.335938 -0.0117188 L 116.335938 36.984375 " fill-opacity="1" fill-rule="nonzero"/><path fill="#000000" d="M 121.074219 36.984375 L 117.5 36.984375 L 117.5 -0.0117188 L 121.074219 -0.0117188 L 121.074219 36.984375 " fill-opacity="1" fill-rule="nonzero"/><path fill="#000000" d="M 131.429688 36.984375 L 127.851562 36.984375 L 127.851562 -0.0117188 L 131.429688 -0.0117188 L 131.429688 36.984375 " fill-opacity="1" fill-rule="nonzero"/><path fill="#000000" d="M 146.898438 36.984375 L 143.316406 36.984375 L 143.316406 -0.0117188 L 146.898438 -0.0117188 L 146.898438 36.984375 " fill-opacity="1" fill-rule="nonzero"/><path fill="#000000" d="M 153.820312 36.984375 L 150.242188 36.984375 L 150.242188 -0.0117188 L 153.820312 -0.0117188 L 153.820312 36.984375 " fill-opacity="1" fill-rule="nonzero"/><path fill="#000000" d="M 158.746094 36.984375 L 155.167969 36.984375 L 155.167969 -0.0117188 L 158.746094 -0.0117188 L 158.746094 36.984375 " fill-opacity="1" fill-rule="nonzero"/><path fill="#000000" d="M 173.652344 36.984375 L 170.074219 36.984375 L 170.074219 -0.0117188 L 173.652344 -0.0117188 L 173.652344 36.984375 " fill-opacity="1" fill-rule="nonzero"/><path fill="#000000" d="M 178.332031 36.984375 L 174.75 36.984375 L 174.75 -0.0117188 L 178.332031 -0.0117188 L 178.332031 36.984375 " fill-opacity="1" fill-rule="nonzero"/><path fill="#000000" d="M 13.511719 36.984375 L 12.285156 36.984375 L 12.285156 -0.0117188 L 13.511719 -0.0117188 L 13.511719 36.984375 " fill-opacity="1" fill-rule="nonzero"/><path fill="#000000" d="M 26.660156 36.984375 L 25.433594 36.984375 L 25.433594 -0.0117188 L 26.660156 -0.0117188 L 26.660156 36.984375 " fill-opacity="1" fill-rule="nonzero"/><path fill="#000000" d="M 33.707031 36.984375 L 32.480469 36.984375 L 32.480469 -0.0117188 L 33.707031 -0.0117188 L 33.707031 36.984375 " fill-opacity="1" fill-rule="nonzero"/><path fill="#000000" d="M 40.753906 36.984375 L 39.527344 36.984375 L 39.527344 -0.0117188 L 40.753906 -0.0117188 L 40.753906 36.984375 " fill-opacity="1" fill-rule="nonzero"/><path fill="#000000" d="M 46.617188 36.984375 L 45.390625 36.984375 L 45.390625 -0.0117188 L 46.617188 -0.0117188 L 46.617188 36.984375 " fill-opacity="1" fill-rule="nonzero"/><path fill="#000000" d="M 48.988281 36.984375 L 47.761719 36.984375 L 47.761719 -0.0117188 L 48.988281 -0.0117188 L 48.988281 36.984375 " fill-opacity="1" fill-rule="nonzero"/><path fill="#000000" d="M 51.359375 36.984375 L 50.132812 36.984375 L 50.132812 -0.0117188 L 51.359375 -0.0117188 L 51.359375 36.984375 " fill-opacity="1" fill-rule="nonzero"/><path fill="#000000" d="M 66.761719 36.984375 L 65.535156 36.984375 L 65.535156 -0.0117188 L 66.761719 -0.0117188 L 66.761719 36.984375 " fill-opacity="1" fill-rule="nonzero"/><path fill="#000000" d="M 68.757812 36.984375 L 67.53125 36.984375 L 67.53125 -0.0117188 L 68.757812 -0.0117188 L 68.757812 36.984375 " fill-opacity="1" fill-rule="nonzero"/><path fill="#000000" d="M 79.609375 36.984375 L 78.382812 36.984375 L 78.382812 -0.0117188 L 79.609375 -0.0117188 L 79.609375 36.984375 " fill-opacity="1" fill-rule="nonzero"/><path fill="#000000" d="M 86.59375 36.984375 L 85.367188 36.984375 L 85.367188 -0.0117188 L 86.59375 -0.0117188 L 86.59375 36.984375 " fill-opacity="1" fill-rule="nonzero"/><path fill="#000000" d="M 89.027344 36.984375 L 87.800781 36.984375 L 87.800781 -0.0117188 L 89.027344 -0.0117188 L 89.027344 36.984375 " fill-opacity="1" fill-rule="nonzero"/><path fill="#000000" d="M 96.199219 36.984375 L 94.972656 36.984375 L 94.972656 -0.0117188 L 96.199219 -0.0117188 L 96.199219 36.984375 " fill-opacity="1" fill-rule="nonzero"/><path fill="#000000" d="M 106.800781 36.984375 L 105.574219 36.984375 L 105.574219 -0.0117188 L 106.800781 -0.0117188 L 106.800781 36.984375 " fill-opacity="1" fill-rule="nonzero"/><path fill="#000000" d="M 109.109375 36.984375 L 107.882812 36.984375 L 107.882812 -0.0117188 L 109.109375 -0.0117188 L 109.109375 36.984375 " fill-opacity="1" fill-rule="nonzero"/><path fill="#000000" d="M 111.605469 36.984375 L 110.378906 36.984375 L 110.378906 -0.0117188 L 111.605469 -0.0117188 L 111.605469 36.984375 " fill-opacity="1" fill-rule="nonzero"/><path fill="#000000" d="M 126.824219 36.984375 L 125.597656 36.984375 L 125.597656 -0.0117188 L 126.824219 -0.0117188 L 126.824219 36.984375 " fill-opacity="1" fill-rule="nonzero"/><path fill="#000000" d="M 137.738281 36.984375 L 136.511719 36.984375 L 136.511719 -0.0117188 L 137.738281 -0.0117188 L 137.738281 36.984375 " fill-opacity="1" fill-rule="nonzero"/><path fill="#000000" d="M 139.734375 36.984375 L 138.507812 36.984375 L 138.507812 -0.0117188 L 139.734375 -0.0117188 L 139.734375 36.984375 " fill-opacity="1" fill-rule="nonzero"/><path fill="#000000" d="M 142.226562 36.984375 L 141 36.984375 L 141 -0.0117188 L 142.226562 -0.0117188 L 142.226562 36.984375 " fill-opacity="1" fill-rule="nonzero"/><path fill="#000000" d="M 149.152344 36.984375 L 147.925781 36.984375 L 147.925781 -0.0117188 L 149.152344 -0.0117188 L 149.152344 36.984375 " fill-opacity="1" fill-rule="nonzero"/><path fill="#000000" d="M 164.429688 36.984375 L 163.203125 36.984375 L 163.203125 -0.0117188 L 164.429688 -0.0117188 L 164.429688 36.984375 " fill-opacity="1" fill-rule="nonzero"/><path fill="#000000" d="M 166.925781 36.984375 L 165.699219 36.984375 L 165.699219 -0.0117188 L 166.925781 -0.0117188 L 166.925781 36.984375 " fill-opacity="1" fill-rule="nonzero"/><path fill="#000000" d="M 169.296875 36.984375 L 168.070312 36.984375 L 168.070312 -0.0117188 L 169.296875 -0.0117188 L 169.296875 36.984375 " fill-opacity="1" fill-rule="nonzero"/><path fill="#000000" d="M 184.699219 36.984375 L 183.476562 36.984375 L 183.476562 -0.0117188 L 184.699219 -0.0117188 L 184.699219 36.984375 " fill-opacity="1" fill-rule="nonzero"/><g clip-path="url(#id1)"><path fill="#000000" d="M 187.070312 36.984375 L 185.84375 36.984375 L 185.84375 -0.0117188 L 187.070312 -0.0117188 L 187.070312 36.984375 " fill-opacity="1" fill-rule="nonzero"/></g><path fill="#000000" d="M 15.816406 36.984375 L 14.589844 36.984375 L 14.589844 -0.0117188 L 15.816406 -0.0117188 L 15.816406 36.984375 " fill-opacity="1" fill-rule="nonzero"/><g clip-path="url(#id2)"><path fill="#000000" d="M 196.09375 36.761719 L 192.515625 36.761719 L 192.515625 -0.238281 L 196.09375 -0.238281 L 196.09375 36.761719 " fill-opacity="1" fill-rule="nonzero"/></g><g clip-path="url(#id3)"><path fill="#000000" d="M 209.25 36.761719 L 205.671875 36.761719 L 205.671875 -0.238281 L 209.25 -0.238281 L 209.25 36.761719 " fill-opacity="1" fill-rule="nonzero"/></g><g clip-path="url(#id4)"><path fill="#000000" d="M 216.546875 36.761719 L 212.96875 36.761719 L 212.96875 -0.238281 L 216.546875 -0.238281 L 216.546875 36.761719 " fill-opacity="1" fill-rule="nonzero"/></g><g clip-path="url(#id5)"><path fill="#000000" d="M 223.410156 36.761719 L 219.828125 36.761719 L 219.828125 -0.238281 L 223.410156 -0.238281 L 223.410156 36.761719 " fill-opacity="1" fill-rule="nonzero"/></g><g clip-path="url(#id6)"><path fill="#000000" d="M 241.121094 36.761719 L 237.542969 36.761719 L 237.542969 -0.238281 L 241.121094 -0.238281 L 241.121094 36.761719 " fill-opacity="1" fill-rule="nonzero"/></g><g clip-path="url(#id7)"><path fill="#000000" d="M 245.988281 36.761719 L 242.40625 36.761719 L 242.40625 -0.238281 L 245.988281 -0.238281 L 245.988281 36.761719 " fill-opacity="1" fill-rule="nonzero"/></g><g clip-path="url(#id8)"><path fill="#000000" d="M 262.328125 36.761719 L 258.75 36.761719 L 258.75 -0.238281 L 262.328125 -0.238281 L 262.328125 36.761719 " fill-opacity="1" fill-rule="nonzero"/></g><g clip-path="url(#id9)"><path fill="#000000" d="M 269.25 36.761719 L 265.671875 36.761719 L 265.671875 -0.238281 L 269.25 -0.238281 L 269.25 36.761719 " fill-opacity="1" fill-rule="nonzero"/></g><g clip-path="url(#id10)"><path fill="#000000" d="M 278.542969 36.761719 L 274.964844 36.761719 L 274.964844 -0.238281 L 278.542969 -0.238281 L 278.542969 36.761719 " fill-opacity="1" fill-rule="nonzero"/></g><g clip-path="url(#id11)"><path fill="#000000" d="M 285.777344 36.761719 L 282.199219 36.761719 L 282.199219 -0.238281 L 285.777344 -0.238281 L 285.777344 36.761719 " fill-opacity="1" fill-rule="nonzero"/></g><g clip-path="url(#id12)"><path fill="#000000" d="M 301.371094 36.761719 L 297.789062 36.761719 L 297.789062 -0.238281 L 301.371094 -0.238281 L 301.371094 36.761719 " fill-opacity="1" fill-rule="nonzero"/></g><g clip-path="url(#id13)"><path fill="#000000" d="M 306.109375 36.761719 L 302.53125 36.761719 L 302.53125 -0.238281 L 306.109375 -0.238281 L 306.109375 36.761719 " fill-opacity="1" fill-rule="nonzero"/></g><g clip-path="url(#id14)"><path fill="#000000" d="M 316.460938 36.761719 L 312.882812 36.761719 L 312.882812 -0.238281 L 316.460938 -0.238281 L 316.460938 36.761719 " fill-opacity="1" fill-rule="nonzero"/></g><g clip-path="url(#id15)"><path fill="#000000" d="M 331.929688 36.761719 L 328.351562 36.761719 L 328.351562 -0.238281 L 331.929688 -0.238281 L 331.929688 36.761719 " fill-opacity="1" fill-rule="nonzero"/></g><g clip-path="url(#id16)"><path fill="#000000" d="M 338.851562 36.761719 L 335.273438 36.761719 L 335.273438 -0.238281 L 338.851562 -0.238281 L 338.851562 36.761719 " fill-opacity="1" fill-rule="nonzero"/></g><g clip-path="url(#id17)"><path fill="#000000" d="M 343.777344 36.761719 L 340.199219 36.761719 L 340.199219 -0.238281 L 343.777344 -0.238281 L 343.777344 36.761719 " fill-opacity="1" fill-rule="nonzero"/></g><g clip-path="url(#id18)"><path fill="#000000" d="M 358.6875 36.761719 L 355.109375 36.761719 L 355.109375 -0.238281 L 358.6875 -0.238281 L 358.6875 36.761719 " fill-opacity="1" fill-rule="nonzero"/></g><g clip-path="url(#id19)"><path fill="#000000" d="M 363.363281 36.761719 L 359.785156 36.761719 L 359.785156 -0.238281 L 363.363281 -0.238281 L 363.363281 36.761719 " fill-opacity="1" fill-rule="nonzero"/></g><g clip-path="url(#id20)"><path fill="#000000" d="M 198.542969 36.761719 L 197.316406 36.761719 L 197.316406 -0.238281 L 198.542969 -0.238281 L 198.542969 36.761719 " fill-opacity="1" fill-rule="nonzero"/></g><g clip-path="url(#id21)"><path fill="#000000" d="M 211.691406 36.761719 L 210.464844 36.761719 L 210.464844 -0.238281 L 211.691406 -0.238281 L 211.691406 36.761719 " fill-opacity="1" fill-rule="nonzero"/></g><g clip-path="url(#id22)"><path fill="#000000" d="M 218.742188 36.761719 L 217.515625 36.761719 L 217.515625 -0.238281 L 218.742188 -0.238281 L 218.742188 36.761719 " fill-opacity="1" fill-rule="nonzero"/></g><g clip-path="url(#id23)"><path fill="#000000" d="M 225.789062 36.761719 L 224.5625 36.761719 L 224.5625 -0.238281 L 225.789062 -0.238281 L 225.789062 36.761719 " fill-opacity="1" fill-rule="nonzero"/></g><g clip-path="url(#id24)"><path fill="#000000" d="M 231.648438 36.761719 L 230.421875 36.761719 L 230.421875 -0.238281 L 231.648438 -0.238281 L 231.648438 36.761719 " fill-opacity="1" fill-rule="nonzero"/></g><g clip-path="url(#id25)"><path fill="#000000" d="M 234.019531 36.761719 L 232.792969 36.761719 L 232.792969 -0.238281 L 234.019531 -0.238281 L 234.019531 36.761719 " fill-opacity="1" fill-rule="nonzero"/></g><g clip-path="url(#id26)"><path fill="#000000" d="M 236.390625 36.761719 L 235.164062 36.761719 L 235.164062 -0.238281 L 236.390625 -0.238281 L 236.390625 36.761719 " fill-opacity="1" fill-rule="nonzero"/></g><g clip-path="url(#id27)"><path fill="#000000" d="M 251.796875 36.761719 L 250.566406 36.761719 L 250.566406 -0.238281 L 251.796875 -0.238281 L 251.796875 36.761719 " fill-opacity="1" fill-rule="nonzero"/></g><g clip-path="url(#id28)"><path fill="#000000" d="M 253.792969 36.761719 L 252.566406 36.761719 L 252.566406 -0.238281 L 253.792969 -0.238281 L 253.792969 36.761719 " fill-opacity="1" fill-rule="nonzero"/></g><g clip-path="url(#id29)"><path fill="#000000" d="M 264.644531 36.761719 L 263.417969 36.761719 L 263.417969 -0.238281 L 264.644531 -0.238281 L 264.644531 36.761719 " fill-opacity="1" fill-rule="nonzero"/></g><g clip-path="url(#id30)"><path fill="#000000" d="M 271.628906 36.761719 L 270.402344 36.761719 L 270.402344 -0.238281 L 271.628906 -0.238281 L 271.628906 36.761719 " fill-opacity="1" fill-rule="nonzero"/></g><g clip-path="url(#id31)"><path fill="#000000" d="M 274.0625 36.761719 L 272.835938 36.761719 L 272.835938 -0.238281 L 274.0625 -0.238281 L 274.0625 36.761719 " fill-opacity="1" fill-rule="nonzero"/></g><g clip-path="url(#id32)"><path fill="#000000" d="M 281.234375 36.761719 L 280.007812 36.761719 L 280.007812 -0.238281 L 281.234375 -0.238281 L 281.234375 36.761719 " fill-opacity="1" fill-rule="nonzero"/></g><g clip-path="url(#id33)"><path fill="#000000" d="M 291.835938 36.761719 L 290.609375 36.761719 L 290.609375 -0.238281 L 291.835938 -0.238281 L 291.835938 36.761719 " fill-opacity="1" fill-rule="nonzero"/></g><g clip-path="url(#id34)"><path fill="#000000" d="M 294.144531 36.761719 L 292.917969 36.761719 L 292.917969 -0.238281 L 294.144531 -0.238281 L 294.144531 36.761719 " fill-opacity="1" fill-rule="nonzero"/></g><g clip-path="url(#id35)"><path fill="#000000" d="M 296.636719 36.761719 L 295.410156 36.761719 L 295.410156 -0.238281 L 296.636719 -0.238281 L 296.636719 36.761719 " fill-opacity="1" fill-rule="nonzero"/></g><g clip-path="url(#id36)"><path fill="#000000" d="M 311.855469 36.761719 L 310.628906 36.761719 L 310.628906 -0.238281 L 311.855469 -0.238281 L 311.855469 36.761719 " fill-opacity="1" fill-rule="nonzero"/></g><g clip-path="url(#id37)"><path fill="#000000" d="M 322.769531 36.761719 L 321.542969 36.761719 L 321.542969 -0.238281 L 322.769531 -0.238281 L 322.769531 36.761719 " fill-opacity="1" fill-rule="nonzero"/></g><g clip-path="url(#id38)"><path fill="#000000" d="M 324.765625 36.761719 L 323.539062 36.761719 L 323.539062 -0.238281 L 324.765625 -0.238281 L 324.765625 36.761719 " fill-opacity="1" fill-rule="nonzero"/></g><g clip-path="url(#id39)"><path fill="#000000" d="M 327.261719 36.761719 L 326.035156 36.761719 L 326.035156 -0.238281 L 327.261719 -0.238281 L 327.261719 36.761719 " fill-opacity="1" fill-rule="nonzero"/></g><g clip-path="url(#id40)"><path fill="#000000" d="M 334.183594 36.761719 L 332.957031 36.761719 L 332.957031 -0.238281 L 334.183594 -0.238281 L 334.183594 36.761719 " fill-opacity="1" fill-rule="nonzero"/></g><g clip-path="url(#id41)"><path fill="#000000" d="M 349.464844 36.761719 L 348.238281 36.761719 L 348.238281 -0.238281 L 349.464844 -0.238281 L 349.464844 36.761719 " fill-opacity="1" fill-rule="nonzero"/></g><g clip-path="url(#id42)"><path fill="#000000" d="M 351.960938 36.761719 L 350.730469 36.761719 L 350.730469 -0.238281 L 351.960938 -0.238281 L 351.960938 36.761719 " fill-opacity="1" fill-rule="nonzero"/></g><g clip-path="url(#id43)"><path fill="#000000" d="M 354.328125 36.761719 L 353.101562 36.761719 L 353.101562 -0.238281 L 354.328125 -0.238281 L 354.328125 36.761719 " fill-opacity="1" fill-rule="nonzero"/></g><g clip-path="url(#id44)"><path fill="#000000" d="M 369.734375 36.761719 L 368.507812 36.761719 L 368.507812 -0.238281 L 369.734375 -0.238281 L 369.734375 36.761719 " fill-opacity="1" fill-rule="nonzero"/></g><g clip-path="url(#id45)"><path fill="#000000" d="M 372.101562 36.761719 L 370.875 36.761719 L 370.875 -0.238281 L 372.101562 -0.238281 L 372.101562 36.761719 " fill-opacity="1" fill-rule="nonzero"/></g><g clip-path="url(#id46)"><path fill="#000000" d="M 200.851562 36.761719 L 199.625 36.761719 L 199.625 -0.238281 L 200.851562 -0.238281 L 200.851562 36.761719 " fill-opacity="1" fill-rule="nonzero"/></g><g clip-path="url(#id47)"><path fill="#000000" d="M 3.367188 36.761719 L 2.144531 36.761719 L 2.144531 -0.238281 L 3.367188 -0.238281 L 3.367188 36.761719 " fill-opacity="1" fill-rule="nonzero"/></g><g clip-path="url(#id48)"><path fill="#000000" d="M 5.738281 36.761719 L 4.511719 36.761719 L 4.511719 -0.238281 L 5.738281 -0.238281 L 5.738281 36.761719 " fill-opacity="1" fill-rule="nonzero"/></g></svg>